<?xml version="1.0" encoding="UTF-8"?><svg version="1.1" width="217px" height="95px" viewBox="0 0 217.0 95.0" xmlns="http://www.w3.org/2000/svg" xmlns:xlink="http://www.w3.org/1999/xlink"><defs><clipPath id="i0"><path d="M1920,0 L1920,1080 L0,1080 L0,0 L1920,0 Z"></path></clipPath><clipPath id="i1"><path d="M9.063,0 C14.068,0 18.124,4.058 18.124,9.061 C18.124,14.067 14.068,18.126 9.063,18.126 C4.055,18.126 0,14.067 0,9.061 C0,4.058 4.055,0 9.063,0 Z"></path></clipPath><clipPath id="i2"><path d="M9.063,0 C14.066,0 18.122,4.058 18.122,9.061 C18.122,14.067 14.066,18.126 9.063,18.126 C4.056,18.126 0,14.067 0,9.061 C0,4.058 4.056,0 9.063,0 Z"></path></clipPath><clipPath id="i3"><path d="M20.234,0 C37.625,0 45.695,6.706 45.695,24.216 C45.695,41.717 37.625,48.424 20.234,48.424 L14.094,48.424 L14.094,71.097 L0,71.097 L0,0 L20.234,0 Z M19.552,11.598 L14.094,11.598 L14.094,36.83 L19.552,36.83 C28.758,36.83 31.599,33.991 31.599,24.216 C31.599,14.438 28.758,11.598 19.552,11.598 Z"></path></clipPath><clipPath id="i4"><path d="M14.096,0 L14.096,58.824 L34.117,58.824 L34.117,71.097 L0,71.097 L0,0 L14.096,0 Z"></path></clipPath><clipPath id="i5"><path d="M21.571,0 C36.343,0 43.163,9.437 43.163,21.031 L43.163,52.343 C43.163,63.935 36.343,73.369 21.571,73.369 C6.82,73.369 0,63.935 0,52.343 L0,21.031 C0,9.437 6.82,0 21.571,0 Z M21.571,12.279 C15.908,12.279 14.092,15.231 14.092,21.374 L14.092,52.001 C14.092,58.138 15.908,61.095 21.571,61.095 C27.251,61.095 29.071,58.138 29.071,52.001 L29.071,21.374 C29.071,15.231 27.251,12.279 21.571,12.279 Z"></path></clipPath><clipPath id="i6"><path d="M80.789,0 L80.789,12.279 L67.193,12.279 L67.193,71.097 L53.102,71.097 L53.102,12.279 L27.686,12.279 L27.686,71.097 L13.593,71.097 L13.593,12.279 L0,12.279 L0,0 L80.789,0 Z"></path></clipPath></defs><g transform="translate(-131.0 -254.0)"><g clip-path="url(#i0)"><g transform="translate(131.0 254.0)"><g transform="translate(147.1346 0.0)"><g clip-path="url(#i1)"><polygon points="0,0 18.124,0 18.124,18.126 0,18.126 0,0" stroke="none" fill="#FFFFFF"></polygon></g></g><g transform="translate(186.4247 0.0)"><g clip-path="url(#i2)"><polygon points="0,0 18.122,0 18.122,18.126 0,18.126 0,0" stroke="none" fill="#FFFFFF"></polygon></g></g><g transform="translate(0.0 22.019600000000025)"><g clip-path="url(#i3)"><polygon points="0,0 45.695,0 45.695,71.097 0,71.097 0,0" stroke="none" fill="#FFFFFF"></polygon></g></g><g transform="translate(50.85820000000001 22.019199999999955)"><g clip-path="url(#i4)"><polygon points="0,0 34.117,0 34.117,71.097 0,71.097 0,0" stroke="none" fill="#FFFFFF"></polygon></g></g><g transform="translate(88.774 20.883299999999963)"><g clip-path="url(#i5)"><polygon points="0,0 43.163,0 43.163,73.369 0,73.369 0,0" stroke="none" fill="#FFFFFF"></polygon></g></g><g transform="translate(135.658 22.019499999999994)"><g clip-path="url(#i6)"><polygon points="0,0 80.789,0 80.789,71.097 0,71.097 0,0" stroke="none" fill="#FFFFFF"></polygon></g></g></g></g></g></svg>