<?xml version="1.0" encoding="UTF-8"?>
<svg width="30px" height="30px" viewBox="0 0 30 30" version="1.1" xmlns="http://www.w3.org/2000/svg" xmlns:xlink="http://www.w3.org/1999/xlink">
    <title>instagram</title>
    <g id="instagram" stroke="none" stroke-width="1" fill="none" fill-rule="evenodd">
        <path d="M23.2864505,18.9277404 C23.2389225,19.964444 23.0656435,20.5268582 22.9200891,20.9021311 C22.7270068,21.3982042 22.4972883,21.7526836 22.1249859,22.1239958 C21.7526836,22.4962981 21.3991944,22.7270068 20.9021311,22.9200891 C20.5278484,23.0656435 19.9654342,23.2389225 18.9287306,23.2854603 C17.8078628,23.3369489 17.4712064,23.3478408 14.6324009,23.3478408 C11.7935954,23.3478408 11.456939,23.3369489 10.3360713,23.2854603 C9.29936764,23.2389225 8.73695344,23.0656435 8.36168058,22.9200891 C7.86560749,22.7270068 7.51112811,22.4962981 7.13981592,22.1239958 C6.76751356,21.7526836 6.53680491,21.3982042 6.34372257,20.9021311 C6.19816819,20.5268582 6.02488917,19.964444 5.97835137,18.9277404 C5.92686275,17.8068727 5.91597093,17.4702163 5.91597093,14.6314108 C5.91597093,11.7926053 5.92686275,11.456939 5.97835137,10.3350811 C6.02488917,9.29837748 6.19816819,8.73596327 6.34372257,8.36168058 C6.53680491,7.86461732 6.76751356,7.51112811 7.13981592,7.13882575 C7.51112811,6.76652339 7.86560749,6.53680491 8.36168058,6.34372257 C8.73695344,6.19816819 9.29936764,6.02488917 10.3360713,5.97736121 C11.456939,5.92587258 11.7935954,5.91498076 14.6324009,5.91498076 C17.4712064,5.91498076 17.8068727,5.92587258 18.9287306,5.97736121 C19.9654342,6.02488917 20.5278484,6.19816819 20.9021311,6.34372257 C21.3991944,6.53680491 21.7526836,6.76652339 22.1249859,7.13882575 C22.4972883,7.51112811 22.7270068,7.86461732 22.9200891,8.36168058 C23.0656435,8.73596327 23.2389225,9.29837748 23.2864505,10.3350811 C23.3379391,11.456939 23.3488309,11.7926053 23.3488309,14.6314108 C23.3488309,17.4702163 23.3379391,17.8068727 23.2864505,18.9277404 M25.2004411,10.2479465 C25.1479623,9.11618696 24.9687423,8.3438576 24.7063483,7.66757432 C24.4340527,6.96851723 24.0706618,6.37540788 23.4795328,5.78427887 C22.8884038,5.19314985 22.2952945,4.82975898 21.5962374,4.55845354 C20.9199541,4.29506942 20.1476247,4.1158494 19.0158652,4.06337061 C17.8821253,4.01188199 17.5197246,4 14.6324009,4 C11.7450773,4 11.3826766,4.01188199 10.2489367,4.06337061 C9.11717713,4.1158494 8.34484776,4.29506942 7.66757432,4.55845354 C6.96851723,4.82975898 6.37540788,5.19314985 5.78526903,5.78427887 C5.19414002,6.37540788 4.83074915,6.96851723 4.55845354,7.66757432 C4.29605959,8.3438576 4.1158494,9.11618696 4.06436078,10.2479465 C4.01287216,11.3816864 4,11.7440871 4,14.6314108 C4,17.5187344 4.01287216,17.8811351 4.06436078,19.014875 C4.1158494,20.1466346 4.29605959,20.9199541 4.55845354,21.5962374 C4.83074915,22.2952945 5.19414002,22.8874136 5.78526903,23.4785427 C6.37540788,24.0696717 6.96851723,24.4330625 7.66757432,24.7053581 C8.34484776,24.9677521 9.11717713,25.1479623 10.2489367,25.1994509 C11.3826766,25.2509395 11.7450773,25.2638117 14.6324009,25.2638117 C17.5197246,25.2638117 17.8821253,25.2509395 19.0158652,25.1994509 C20.1476247,25.1479623 20.9199541,24.9677521 21.5962374,24.7053581 C22.2952945,24.4330625 22.8884038,24.0696717 23.4795328,23.4785427 C24.0706618,22.8874136 24.4340527,22.2952945 24.7063483,21.5962374 C24.9687423,20.9199541 25.1479623,20.1466346 25.2004411,19.014875 C25.2519297,17.8811351 25.2638117,17.5187344 25.2638117,14.6314108 C25.2638117,11.7440871 25.2519297,11.3816864 25.2004411,10.2479465 M21.5833652,8.95677026 C21.5833652,9.66077818 21.0120395,10.2321039 20.3080316,10.2321039 C19.6030335,10.2321039 19.0317078,9.66077818 19.0317078,8.95677026 C19.0317078,8.25177217 19.6030335,7.68044647 20.3080316,7.68044647 C21.0120395,7.68044647 21.5833652,8.25177217 21.5833652,8.95677026 M14.6324009,18.1752143 C12.674843,18.1752143 11.0885973,16.5889687 11.0885973,14.6314108 C11.0885973,12.6738529 12.674843,11.0876072 14.6324009,11.0876072 C16.5899588,11.0876072 18.1762045,12.6738529 18.1762045,14.6314108 C18.1762045,16.5889687 16.5899588,18.1752143 14.6324009,18.1752143 M14.6324009,9.17163625 C11.6173459,9.17163625 9.17262641,11.6163557 9.17262641,14.6314108 C9.17262641,17.6464658 11.6173459,20.0911853 14.6324009,20.0911853 C17.6474559,20.0911853 20.0921754,17.6464658 20.0921754,14.6314108 C20.0921754,11.6163557 17.6474559,9.17163625 14.6324009,9.17163625" id="Fill-4" fill="#FFFFFF"></path>
    </g>
</svg>