<?xml version="1.0" encoding="UTF-8"?>
<svg width="30px" height="30px" viewBox="0 0 30 30" version="1.1" xmlns="http://www.w3.org/2000/svg" xmlns:xlink="http://www.w3.org/1999/xlink">
    <title>linkedin</title>
    <g id="linkedin" stroke="none" stroke-width="1" fill="none" fill-rule="evenodd">
        <g id="Group" transform="translate(4.000000, 4.000000)" fill="#FFFFFF">
            <path d="M2.5897178,4.81826423 C4.20506668,4.81826423 5.21217916,3.74665686 5.21217916,2.40813989 C5.18241229,1.04084827 4.20506668,0 2.6204769,0 C1.03588712,0 0,1.04084827 0,2.40813989 C0,3.74665686 1.00512802,4.81826423 2.56094316,4.81826423 L2.5897178,4.81826423 Z M0.272862987,20.6631698 L4.90756484,20.6631698 L4.90756484,6.72036731 L0.272862987,6.72036731 L0.272862987,20.6631698 Z" id="Fill-4"></path>
            <path d="M7.47128624,20.6635667 L12.1049959,20.6635667 L12.1049959,12.8775454 C12.1049959,12.4608092 12.1347627,12.044073 12.2597836,11.7473965 C12.5921803,10.9139241 13.3561967,10.0516771 14.6361722,10.0516771 C16.3130392,10.0516771 16.9837861,11.3306603 16.9837861,13.204981 L16.9837861,20.6635667 L21.6174957,20.6635667 L21.6174957,12.6691773 C21.6174957,8.38671676 19.3314,6.39432084 16.2832724,6.39432084 C13.781863,6.39432084 12.6834654,7.79237156 12.075229,8.74391921 L12.1049959,8.74391921 L12.1049959,6.7207642 L7.47128624,6.7207642 C7.53280445,8.02852207 7.47128624,20.6635667 7.47128624,20.6635667" id="Fill-6"></path>
        </g>
    </g>
</svg>