<?xml version="1.0" encoding="UTF-8"?>
<svg width="30px" height="30px" viewBox="0 0 30 30" version="1.1" xmlns="http://www.w3.org/2000/svg" xmlns:xlink="http://www.w3.org/1999/xlink">
    <title>twitter</title>
    <g id="twitter" stroke="none" stroke-width="1" fill="none" fill-rule="evenodd">
        <path d="M27.1323835,8.99459452 C26.2562314,9.30615936 25.3274904,9.48972463 24.3620363,9.53040666 C25.3830561,9.02039288 26.2026502,8.15217877 26.6412224,7.07658551 C25.6856907,7.5469095 24.644826,7.86244331 23.5523646,7.99242737 C22.7605533,7.00911287 21.5768054,6.34033993 20.2184224,6.23615424 C17.6078266,6.03572081 15.330625,7.98845839 15.1301915,10.5970697 C15.1024087,10.9681692 15.1153079,11.3313308 15.1698813,11.6835777 C11.2584527,11.1854708 7.92054149,9.03726104 5.81003701,6 C5.35062771,6.66678844 5.05493879,7.45959196 4.98845839,8.32482935 C4.86244331,9.96500984 5.5857897,11.4752063 6.78739804,12.4198232 C6.01543166,12.3354824 5.30299996,12.0665841 4.69376171,11.6637328 C4.69177722,11.6835777 4.69078498,11.7034226 4.68880049,11.7232675 C4.51317318,14.0133682 5.99459452,16.0474699 8.12295941,16.6487702 C7.71812358,16.7261653 7.29641958,16.7509714 6.86578537,16.7182273 C6.56116625,16.6944134 6.26646957,16.6418245 5.98367983,16.5644294 C6.44011239,18.4883919 8.08029289,19.9876736 10.1441619,20.1851303 C8.43055527,21.327204 6.33493446,21.927512 4.12123652,21.7568459 C3.74021455,21.7270786 3.3661383,21.6764741 3,21.6050325 C4.98746615,23.1053065 7.41052772,24.0796908 10.079666,24.2831009 C18.7697451,24.9498894 24.0742853,18.1163001 24.5545317,11.8721042 C24.5704077,11.6667095 24.5803301,11.4632993 24.5872758,11.2598892 C25.5626524,10.6645424 26.4268975,9.89356822 27.1323835,8.99459452" id="Fill-4-Copy" fill="#FFFFFF"></path>
    </g>
</svg>